<svg xmlns="http://www.w3.org/2000/svg" xmlns:xlink="http://www.w3.org/1999/xlink" width="100" zoomAndPan="magnify" viewBox="0 0 75 74.999997" height="100" preserveAspectRatio="xMidYMid meet" version="1.2"><defs><clipPath id="94ef117777"><path d="M 61.851562 34 L 73.308594 34 L 73.308594 37 L 61.851562 37 Z M 61.851562 34 "/></clipPath><clipPath id="b677b290b9"><path d="M 2.0625 34 L 14 34 L 14 37 L 2.0625 37 Z M 2.0625 34 "/></clipPath></defs><g id="30a03e26f7"><path style=" stroke:none;fill-rule:nonzero;fill:#000000;fill-opacity:1;" d="M 49.910156 44.859375 C 45.5625 50.109375 45.5625 54.585938 45.5625 54.585938 L 45.5625 57.625 L 29.808594 57.625 L 29.808594 54.585938 C 29.808594 54.585938 29.808594 50.109375 25.460938 44.859375 C 25.460938 44.859375 20.078125 38.617188 23.117188 30.515625 C 26.070312 22.632812 32.972656 20.148438 37.335938 20.148438 C 37.453125 20.148438 37.570312 20.152344 37.683594 20.15625 C 37.800781 20.152344 37.917969 20.148438 38.035156 20.148438 C 42.398438 20.148438 49.300781 22.636719 52.253906 30.515625 C 55.292969 38.617188 49.910156 44.859375 49.910156 44.859375 Z M 56.042969 36.300781 C 56.144531 34.011719 55.777344 31.726562 54.949219 29.519531 C 54.136719 27.351562 53.011719 25.402344 51.605469 23.734375 C 50.339844 22.234375 48.847656 20.957031 47.171875 19.9375 C 45.703125 19.042969 44.109375 18.359375 42.441406 17.902344 C 40.972656 17.503906 39.449219 17.289062 38.035156 17.289062 C 37.917969 17.289062 37.800781 17.292969 37.683594 17.292969 C 37.570312 17.292969 37.453125 17.289062 37.335938 17.289062 C 35.921875 17.289062 34.398438 17.503906 32.929688 17.902344 C 31.261719 18.359375 29.667969 19.042969 28.199219 19.9375 C 26.523438 20.957031 25.03125 22.234375 23.765625 23.734375 C 22.359375 25.402344 21.234375 27.351562 20.421875 29.519531 C 19.59375 31.726562 19.226562 34.011719 19.328125 36.300781 C 19.410156 38.125 19.792969 39.953125 20.457031 41.726562 C 21.527344 44.582031 22.996094 46.386719 23.253906 46.691406 C 25.191406 49.035156 26.09375 51.15625 26.515625 52.527344 C 26.894531 53.769531 26.933594 54.582031 26.933594 54.585938 L 26.933594 58.433594 C 26.933594 59.566406 27.855469 60.484375 28.992188 60.484375 L 46.378906 60.484375 C 47.515625 60.484375 48.4375 59.566406 48.4375 58.433594 L 48.4375 54.617188 C 48.441406 54.519531 48.492188 53.632812 48.933594 52.28125 C 49.363281 50.964844 50.265625 48.933594 52.117188 46.691406 C 52.375 46.386719 53.84375 44.582031 54.914062 41.726562 C 55.578125 39.953125 55.960938 38.125 56.042969 36.300781 "/><path style=" stroke:none;fill-rule:nonzero;fill:#000000;fill-opacity:1;" d="M 39.121094 1.476562 C 39.121094 0.6875 38.480469 0.046875 37.683594 0.046875 C 36.890625 0.046875 36.25 0.6875 36.25 1.476562 L 36.25 11.441406 L 39.121094 11.441406 L 39.121094 1.476562 "/><g clip-rule="nonzero" clip-path="url(#94ef117777)"><path style=" stroke:none;fill-rule:nonzero;fill:#000000;fill-opacity:1;" d="M 71.871094 34.054688 L 61.855469 34.054688 L 61.855469 36.914062 L 71.871094 36.914062 C 72.664062 36.914062 73.308594 36.273438 73.308594 35.484375 C 73.308594 34.695312 72.664062 34.054688 71.871094 34.054688 "/></g><path style=" stroke:none;fill-rule:nonzero;fill:#000000;fill-opacity:1;" d="M 55.792969 51.472656 L 53.761719 53.496094 L 60.84375 60.539062 C 61.402344 61.097656 62.3125 61.097656 62.875 60.539062 C 63.4375 59.980469 63.4375 59.074219 62.875 58.519531 L 55.792969 51.472656 "/><path style=" stroke:none;fill-rule:nonzero;fill:#000000;fill-opacity:1;" d="M 62.875 12.449219 C 63.4375 11.890625 63.4375 10.984375 62.875 10.425781 C 62.3125 9.867188 61.402344 9.867188 60.84375 10.425781 L 53.761719 17.46875 L 55.792969 19.492188 L 62.875 12.449219 "/><g clip-rule="nonzero" clip-path="url(#b677b290b9)"><path style=" stroke:none;fill-rule:nonzero;fill:#000000;fill-opacity:1;" d="M 13.515625 34.054688 L 3.5 34.054688 C 2.707031 34.054688 2.0625 34.695312 2.0625 35.484375 C 2.0625 36.273438 2.707031 36.914062 3.5 36.914062 L 13.515625 36.914062 L 13.515625 34.054688 "/></g><path style=" stroke:none;fill-rule:nonzero;fill:#000000;fill-opacity:1;" d="M 12.496094 58.519531 C 11.933594 59.074219 11.933594 59.980469 12.496094 60.539062 C 13.058594 61.097656 13.96875 61.097656 14.527344 60.539062 L 21.609375 53.496094 L 19.578125 51.472656 L 12.496094 58.519531 "/><path style=" stroke:none;fill-rule:nonzero;fill:#000000;fill-opacity:1;" d="M 19.578125 19.492188 L 21.609375 17.46875 L 14.527344 10.425781 C 13.96875 9.867188 13.058594 9.867188 12.496094 10.425781 C 11.933594 10.984375 11.933594 11.890625 12.496094 12.449219 L 19.578125 19.492188 "/><path style=" stroke:none;fill-rule:nonzero;fill:#000000;fill-opacity:1;" d="M 37.40625 23.804688 C 37.347656 22.972656 36.582031 22.371094 35.753906 22.507812 C 31.910156 23.148438 29.53125 25.066406 28.167969 26.660156 C 27.445312 27.507812 26.933594 28.351562 26.582031 29.039062 C 26.179688 29.839844 26.609375 30.804688 27.476562 31.035156 L 27.515625 31.046875 C 28.164062 31.21875 28.84375 30.917969 29.148438 30.320312 C 29.921875 28.792969 31.882812 26.054688 36.21875 25.332031 C 36.941406 25.210938 37.457031 24.574219 37.40625 23.847656 L 37.40625 23.804688 "/><path style=" stroke:none;fill-rule:nonzero;fill:#000000;fill-opacity:1;" d="M 45.738281 61.824219 L 29.539062 61.824219 C 28.773438 61.824219 28.152344 62.460938 28.152344 63.25 C 28.152344 64.042969 28.773438 64.683594 29.539062 64.683594 L 45.738281 64.683594 C 46.503906 64.683594 47.125 64.042969 47.125 63.25 C 47.125 62.460938 46.503906 61.824219 45.738281 61.824219 "/><path style=" stroke:none;fill-rule:nonzero;fill:#000000;fill-opacity:1;" d="M 45.738281 66.019531 L 29.539062 66.019531 C 28.773438 66.019531 28.152344 66.660156 28.152344 67.449219 C 28.152344 68.238281 28.773438 68.878906 29.539062 68.878906 L 45.738281 68.878906 C 46.503906 68.878906 47.125 68.238281 47.125 67.449219 C 47.125 66.660156 46.503906 66.019531 45.738281 66.019531 "/><path style=" stroke:none;fill-rule:nonzero;fill:#000000;fill-opacity:1;" d="M 44.933594 70.21875 L 30.339844 70.21875 C 29.914062 70.21875 29.703125 70.730469 30.003906 71.027344 L 32.421875 73.433594 C 33.128906 74.136719 34.039062 74.605469 35.023438 74.761719 C 35.699219 74.867188 36.570312 74.953125 37.636719 74.953125 C 38.703125 74.953125 39.578125 74.867188 40.25 74.761719 C 41.238281 74.605469 42.148438 74.136719 42.855469 73.433594 L 45.273438 71.027344 C 45.574219 70.730469 45.359375 70.21875 44.933594 70.21875 "/></g></svg>