<svg xmlns="http://www.w3.org/2000/svg" xmlns:xlink="http://www.w3.org/1999/xlink" width="100" zoomAndPan="magnify" viewBox="0 0 75 74.999997" height="100" preserveAspectRatio="xMidYMid meet" version="1.2"><defs><clipPath id="42bb7cca41"><path d="M 26 1.023438 L 50 1.023438 L 50 24 L 26 24 Z M 26 1.023438 "/></clipPath><clipPath id="f4e82a167a"><path d="M 28 54 L 49 54 L 49 73.773438 L 28 73.773438 Z M 28 54 "/></clipPath></defs><g id="72081058a3"><path style=" stroke:none;fill-rule:nonzero;fill:#010101;fill-opacity:1;" d="M 74.574219 38.507812 C 74.402344 37.953125 74.140625 37.4375 73.796875 36.964844 C 73.449219 36.496094 73.039062 36.09375 72.558594 35.757812 C 72.078125 35.421875 71.558594 35.171875 70.996094 35.011719 C 70.433594 34.847656 69.863281 34.78125 69.277344 34.804688 L 69.265625 34.769531 C 68.996094 33.914062 68.570312 33.144531 67.984375 32.460938 C 67.402344 31.777344 66.707031 31.234375 65.902344 30.832031 C 65.132812 30.441406 64.316406 30.21875 63.457031 30.164062 C 62.597656 30.105469 61.757812 30.21875 60.941406 30.5 C 60.382812 30.699219 59.859375 30.964844 59.367188 31.300781 C 58.878906 31.640625 58.441406 32.035156 58.058594 32.488281 C 57.675781 32.9375 57.355469 33.433594 57.101562 33.96875 C 56.847656 34.507812 56.667969 35.066406 56.5625 35.648438 C 55.769531 35.546875 54.988281 35.625 54.230469 35.890625 C 53.039062 36.300781 52.109375 37.039062 51.449219 38.113281 C 51.347656 38.136719 51.246094 38.164062 51.144531 38.199219 C 50.578125 38.394531 50.117188 38.734375 49.753906 39.210938 C 49.394531 39.6875 49.195312 40.222656 49.164062 40.820312 C 49.152344 40.996094 49.175781 41.164062 49.234375 41.332031 C 49.292969 41.496094 49.386719 41.644531 49.507812 41.773438 C 49.625 41.898438 49.769531 42 49.929688 42.070312 C 50.09375 42.136719 50.261719 42.171875 50.4375 42.171875 L 73.511719 42.171875 C 73.824219 42.175781 74.101562 42.074219 74.339844 41.871094 C 74.578125 41.667969 74.722656 41.414062 74.773438 41.105469 C 74.914062 40.222656 74.851562 39.359375 74.574219 38.507812 Z M 73.214844 40.5625 L 50.84375 40.5625 C 50.980469 40.148438 51.253906 39.867188 51.667969 39.722656 C 51.777344 39.683594 51.886719 39.664062 52.003906 39.65625 L 52.460938 39.632812 L 52.671875 39.222656 C 53.125 38.339844 53.816406 37.738281 54.753906 37.414062 C 55.503906 37.152344 56.257812 37.148438 57.011719 37.398438 L 58.023438 37.730469 L 58.070312 36.667969 C 58.089844 36.15625 58.179688 35.65625 58.347656 35.171875 C 58.515625 34.6875 58.753906 34.238281 59.054688 33.824219 C 59.359375 33.410156 59.714844 33.050781 60.125 32.742188 C 60.535156 32.4375 60.984375 32.195312 61.464844 32.019531 C 62.078125 31.8125 62.703125 31.726562 63.347656 31.769531 C 63.992188 31.8125 64.605469 31.980469 65.179688 32.269531 C 65.792969 32.578125 66.316406 32.992188 66.761719 33.511719 C 67.203125 34.027344 67.523438 34.613281 67.730469 35.265625 C 67.792969 35.457031 67.84375 35.652344 67.882812 35.851562 L 68.042969 36.648438 L 68.839844 36.484375 C 69.285156 36.398438 69.730469 36.394531 70.175781 36.472656 C 70.621094 36.550781 71.039062 36.707031 71.425781 36.9375 C 71.816406 37.171875 72.148438 37.464844 72.425781 37.820312 C 72.703125 38.179688 72.910156 38.574219 73.039062 39.003906 C 73.203125 39.511719 73.261719 40.03125 73.214844 40.5625 Z M 73.214844 40.5625 "/><path style=" stroke:none;fill-rule:nonzero;fill:#010101;fill-opacity:1;" d="M 51.890625 42.976562 C 51.710938 42.871094 51.519531 42.84375 51.320312 42.894531 C 51.117188 42.949219 50.964844 43.0625 50.859375 43.242188 L 49.933594 44.8125 C 49.828125 44.992188 49.800781 45.179688 49.851562 45.382812 C 49.90625 45.582031 50.019531 45.738281 50.199219 45.84375 C 50.378906 45.949219 50.570312 45.972656 50.773438 45.921875 C 50.972656 45.871094 51.128906 45.753906 51.234375 45.578125 L 52.160156 44.007812 C 52.265625 43.828125 52.292969 43.636719 52.238281 43.4375 C 52.1875 43.234375 52.070312 43.082031 51.890625 42.976562 Z M 51.890625 42.976562 "/><path style=" stroke:none;fill-rule:nonzero;fill:#010101;fill-opacity:1;" d="M 54.121094 45.945312 C 54.410156 45.945312 54.625 45.824219 54.773438 45.574219 L 55.695312 44.007812 C 55.804688 43.828125 55.828125 43.636719 55.777344 43.433594 C 55.726562 43.234375 55.609375 43.082031 55.429688 42.976562 C 55.25 42.871094 55.058594 42.84375 54.855469 42.894531 C 54.65625 42.945312 54.5 43.0625 54.394531 43.242188 L 53.46875 44.8125 C 53.320312 45.0625 53.320312 45.3125 53.464844 45.566406 C 53.609375 45.820312 53.828125 45.945312 54.121094 45.945312 Z M 54.121094 45.945312 "/><path style=" stroke:none;fill-rule:nonzero;fill:#010101;fill-opacity:1;" d="M 57.660156 45.945312 C 57.945312 45.945312 58.164062 45.824219 58.308594 45.574219 L 59.234375 44.007812 C 59.339844 43.828125 59.367188 43.636719 59.316406 43.433594 C 59.261719 43.234375 59.148438 43.082031 58.96875 42.976562 C 58.789062 42.871094 58.597656 42.84375 58.394531 42.894531 C 58.191406 42.945312 58.039062 43.0625 57.933594 43.242188 L 57.007812 44.8125 C 56.859375 45.0625 56.859375 45.3125 57.003906 45.566406 C 57.148438 45.820312 57.367188 45.945312 57.660156 45.945312 Z M 57.660156 45.945312 "/><path style=" stroke:none;fill-rule:nonzero;fill:#010101;fill-opacity:1;" d="M 60.8125 45.84375 C 60.992188 45.949219 61.183594 45.976562 61.386719 45.921875 C 61.589844 45.871094 61.742188 45.753906 61.847656 45.574219 L 62.773438 44.007812 C 62.878906 43.828125 62.90625 43.636719 62.855469 43.433594 C 62.800781 43.234375 62.683594 43.082031 62.503906 42.976562 C 62.324219 42.871094 62.136719 42.84375 61.933594 42.894531 C 61.730469 42.945312 61.578125 43.0625 61.472656 43.242188 L 60.546875 44.8125 C 60.441406 44.992188 60.414062 45.179688 60.464844 45.382812 C 60.519531 45.585938 60.632812 45.738281 60.8125 45.84375 Z M 60.8125 45.84375 "/><path style=" stroke:none;fill-rule:nonzero;fill:#010101;fill-opacity:1;" d="M 66.042969 42.976562 C 65.863281 42.871094 65.671875 42.84375 65.46875 42.894531 C 65.269531 42.949219 65.113281 43.0625 65.007812 43.242188 L 64.085938 44.8125 C 63.980469 44.992188 63.953125 45.179688 64.003906 45.382812 C 64.058594 45.582031 64.171875 45.738281 64.351562 45.84375 C 64.53125 45.949219 64.722656 45.972656 64.925781 45.921875 C 65.125 45.871094 65.28125 45.753906 65.386719 45.578125 L 66.3125 44.007812 C 66.417969 43.828125 66.445312 43.636719 66.390625 43.4375 C 66.339844 43.234375 66.222656 43.082031 66.042969 42.976562 Z M 66.042969 42.976562 "/><path style=" stroke:none;fill-rule:nonzero;fill:#010101;fill-opacity:1;" d="M 69.582031 42.976562 C 69.402344 42.871094 69.210938 42.84375 69.007812 42.894531 C 68.808594 42.949219 68.652344 43.0625 68.546875 43.242188 L 67.621094 44.8125 C 67.515625 44.992188 67.492188 45.179688 67.542969 45.382812 C 67.59375 45.582031 67.710938 45.738281 67.890625 45.84375 C 68.070312 45.949219 68.261719 45.972656 68.460938 45.921875 C 68.664062 45.871094 68.816406 45.753906 68.925781 45.578125 L 69.847656 44.007812 C 69.953125 43.828125 69.980469 43.636719 69.929688 43.4375 C 69.875 43.234375 69.761719 43.082031 69.582031 42.976562 Z M 69.582031 42.976562 "/><path style=" stroke:none;fill-rule:nonzero;fill:#010101;fill-opacity:1;" d="M 73.117188 42.976562 C 72.9375 42.871094 72.75 42.84375 72.546875 42.894531 C 72.34375 42.949219 72.191406 43.0625 72.085938 43.242188 L 71.160156 44.8125 C 71.054688 44.992188 71.027344 45.179688 71.078125 45.382812 C 71.132812 45.585938 71.246094 45.738281 71.425781 45.84375 C 71.605469 45.949219 71.796875 45.976562 72 45.921875 C 72.203125 45.871094 72.355469 45.753906 72.460938 45.578125 L 73.386719 44.007812 C 73.492188 43.828125 73.519531 43.636719 73.46875 43.4375 C 73.414062 43.234375 73.300781 43.082031 73.117188 42.976562 Z M 73.117188 42.976562 "/><g clip-rule="nonzero" clip-path="url(#42bb7cca41)"><path style=" stroke:none;fill-rule:nonzero;fill:#010101;fill-opacity:1;" d="M 49.605469 12.421875 C 49.605469 12.199219 49.527344 12.007812 49.367188 11.851562 C 49.210938 11.695312 49.019531 11.617188 48.796875 11.617188 L 45.566406 11.617188 C 45.554688 11.617188 45.539062 11.621094 45.527344 11.621094 C 45.394531 10.398438 44.976562 9.28125 44.277344 8.265625 C 44.289062 8.257812 44.300781 8.25 44.3125 8.242188 L 45.535156 7.191406 C 45.707031 7.046875 45.804688 6.863281 45.820312 6.636719 C 45.839844 6.414062 45.773438 6.21875 45.628906 6.046875 C 45.480469 5.878906 45.296875 5.785156 45.070312 5.769531 C 44.847656 5.753906 44.652344 5.820312 44.484375 5.972656 L 43.257812 7.023438 C 43.246094 7.035156 43.234375 7.046875 43.222656 7.058594 C 42.039062 5.949219 40.636719 5.304688 39.019531 5.128906 C 39.019531 5.113281 39.023438 5.101562 39.023438 5.089844 L 39.023438 1.867188 C 39.023438 1.644531 38.945312 1.457031 38.789062 1.296875 C 38.628906 1.140625 38.441406 1.0625 38.21875 1.0625 C 37.996094 1.0625 37.804688 1.140625 37.648438 1.296875 C 37.488281 1.457031 37.410156 1.644531 37.410156 1.867188 L 37.410156 5.085938 C 37.410156 5.101562 37.414062 5.113281 37.414062 5.128906 C 35.796875 5.304688 34.394531 5.949219 33.207031 7.058594 C 33.195312 7.046875 33.1875 7.03125 33.171875 7.019531 L 31.949219 5.972656 C 31.78125 5.824219 31.585938 5.757812 31.359375 5.773438 C 31.136719 5.785156 30.949219 5.878906 30.804688 6.050781 C 30.65625 6.21875 30.59375 6.414062 30.609375 6.640625 C 30.628906 6.863281 30.722656 7.046875 30.894531 7.191406 L 32.117188 8.242188 C 32.128906 8.253906 32.144531 8.257812 32.15625 8.269531 C 31.453125 9.28125 31.039062 10.398438 30.902344 11.621094 C 30.890625 11.621094 30.875 11.617188 30.863281 11.617188 L 27.632812 11.617188 C 27.40625 11.617188 27.21875 11.695312 27.058594 11.851562 C 26.902344 12.007812 26.824219 12.199219 26.824219 12.421875 C 26.824219 12.644531 26.902344 12.832031 27.058594 12.988281 C 27.21875 13.148438 27.40625 13.226562 27.632812 13.226562 L 30.863281 13.226562 C 30.875 13.226562 30.890625 13.222656 30.902344 13.222656 C 31.039062 14.445312 31.453125 15.5625 32.15625 16.574219 C 32.144531 16.582031 32.132812 16.589844 32.121094 16.601562 L 30.894531 17.652344 C 30.722656 17.796875 30.628906 17.980469 30.609375 18.203125 C 30.59375 18.425781 30.65625 18.625 30.804688 18.792969 C 30.949219 18.964844 31.136719 19.054688 31.359375 19.070312 C 31.585938 19.085938 31.78125 19.019531 31.949219 18.871094 L 33.171875 17.820312 C 33.1875 17.808594 33.195312 17.792969 33.207031 17.78125 C 34.394531 18.890625 35.796875 19.535156 37.414062 19.714844 C 37.414062 19.726562 37.40625 19.742188 37.40625 19.753906 L 37.40625 22.976562 C 37.40625 23.195312 37.488281 23.386719 37.644531 23.542969 C 37.800781 23.699219 37.992188 23.78125 38.214844 23.78125 C 38.4375 23.78125 38.628906 23.699219 38.785156 23.542969 C 38.941406 23.386719 39.023438 23.195312 39.023438 22.976562 L 39.023438 19.753906 C 39.023438 19.738281 39.019531 19.726562 39.019531 19.714844 C 40.632812 19.535156 42.035156 18.890625 43.222656 17.78125 C 43.234375 17.792969 43.242188 17.808594 43.257812 17.820312 L 44.480469 18.871094 C 44.648438 19.019531 44.84375 19.085938 45.070312 19.070312 C 45.292969 19.054688 45.480469 18.964844 45.625 18.792969 C 45.773438 18.625 45.835938 18.429688 45.820312 18.203125 C 45.800781 17.980469 45.707031 17.796875 45.535156 17.652344 L 44.3125 16.601562 C 44.300781 16.589844 44.285156 16.585938 44.273438 16.574219 C 44.976562 15.5625 45.394531 14.445312 45.527344 13.222656 C 45.539062 13.222656 45.554688 13.226562 45.566406 13.226562 L 48.796875 13.226562 C 49.019531 13.226562 49.210938 13.148438 49.367188 12.992188 C 49.527344 12.832031 49.605469 12.644531 49.605469 12.421875 Z M 38.214844 18.148438 C 37.835938 18.148438 37.464844 18.113281 37.09375 18.039062 C 36.722656 17.964844 36.363281 17.855469 36.015625 17.710938 C 35.667969 17.570312 35.335938 17.390625 35.023438 17.183594 C 34.710938 16.972656 34.421875 16.738281 34.152344 16.472656 C 33.886719 16.203125 33.648438 15.914062 33.4375 15.601562 C 33.230469 15.289062 33.054688 14.960938 32.910156 14.613281 C 32.765625 14.265625 32.65625 13.90625 32.582031 13.539062 C 32.507812 13.167969 32.472656 12.796875 32.472656 12.421875 C 32.472656 12.042969 32.507812 11.671875 32.582031 11.304688 C 32.65625 10.933594 32.765625 10.578125 32.910156 10.230469 C 33.054688 9.882812 33.230469 9.550781 33.441406 9.238281 C 33.648438 8.925781 33.886719 8.636719 34.152344 8.371094 C 34.421875 8.105469 34.710938 7.867188 35.023438 7.660156 C 35.335938 7.449219 35.667969 7.273438 36.015625 7.128906 C 36.367188 6.984375 36.726562 6.875 37.09375 6.804688 C 37.464844 6.730469 37.839844 6.691406 38.214844 6.691406 C 38.59375 6.691406 38.964844 6.730469 39.335938 6.804688 C 39.707031 6.875 40.066406 6.984375 40.414062 7.128906 C 40.761719 7.273438 41.09375 7.449219 41.40625 7.660156 C 41.71875 7.867188 42.007812 8.105469 42.277344 8.371094 C 42.542969 8.636719 42.78125 8.925781 42.992188 9.238281 C 43.199219 9.550781 43.378906 9.882812 43.519531 10.230469 C 43.664062 10.578125 43.773438 10.933594 43.847656 11.304688 C 43.921875 11.671875 43.957031 12.042969 43.957031 12.421875 C 43.957031 12.796875 43.921875 13.167969 43.847656 13.539062 C 43.773438 13.90625 43.664062 14.265625 43.519531 14.613281 C 43.375 14.960938 43.199219 15.289062 42.988281 15.601562 C 42.777344 15.914062 42.539062 16.203125 42.273438 16.46875 C 42.007812 16.734375 41.71875 16.972656 41.402344 17.179688 C 41.089844 17.390625 40.761719 17.566406 40.410156 17.710938 C 40.0625 17.855469 39.703125 17.964844 39.335938 18.039062 C 38.964844 18.113281 38.589844 18.148438 38.214844 18.148438 Z M 38.214844 18.148438 "/></g><g clip-rule="nonzero" clip-path="url(#f4e82a167a)"><path style=" stroke:none;fill-rule:nonzero;fill:#010101;fill-opacity:1;" d="M 47.4375 64.753906 L 46.769531 64.632812 L 47.296875 64.265625 C 47.488281 64.140625 47.601562 63.96875 47.644531 63.746094 C 47.6875 63.527344 47.644531 63.324219 47.515625 63.136719 C 47.386719 62.953125 47.210938 62.839844 46.988281 62.804688 C 46.765625 62.765625 46.5625 62.8125 46.378906 62.945312 L 44.523438 64.226562 L 42.015625 63.773438 L 41.722656 62.457031 L 43.824219 61.003906 L 46.046875 61.40625 C 46.09375 61.417969 46.140625 61.421875 46.191406 61.421875 C 46.398438 61.417969 46.578125 61.347656 46.734375 61.207031 C 46.886719 61.066406 46.972656 60.894531 46.992188 60.6875 C 47.007812 60.480469 46.957031 60.292969 46.828125 60.128906 C 46.703125 59.964844 46.539062 59.863281 46.332031 59.824219 L 45.699219 59.710938 L 46.257812 59.324219 C 46.441406 59.199219 46.550781 59.023438 46.589844 58.808594 C 46.632812 58.589844 46.585938 58.386719 46.460938 58.203125 C 46.332031 58.023438 46.160156 57.910156 45.941406 57.871094 C 45.722656 57.832031 45.519531 57.875 45.335938 58 L 44.78125 58.386719 L 44.894531 57.753906 C 44.933594 57.535156 44.890625 57.335938 44.765625 57.152344 C 44.636719 56.972656 44.464844 56.859375 44.246094 56.820312 C 44.027344 56.78125 43.824219 56.824219 43.640625 56.949219 C 43.457031 57.078125 43.347656 57.25 43.308594 57.46875 L 42.902344 59.683594 L 40.78125 61.148438 L 39.664062 60.441406 L 40.125 57.898438 L 41.980469 56.617188 C 42.167969 56.492188 42.28125 56.320312 42.320312 56.097656 C 42.363281 55.878906 42.320312 55.675781 42.191406 55.492188 C 42.0625 55.308594 41.890625 55.195312 41.667969 55.15625 C 41.445312 55.121094 41.246094 55.164062 41.0625 55.292969 L 40.53125 55.660156 L 40.652344 54.996094 C 40.691406 54.777344 40.648438 54.574219 40.523438 54.390625 C 40.394531 54.210938 40.222656 54.097656 40.003906 54.058594 C 39.785156 54.019531 39.582031 54.0625 39.398438 54.191406 C 39.214844 54.316406 39.105469 54.488281 39.066406 54.707031 L 38.945312 55.371094 L 38.578125 54.84375 C 38.449219 54.664062 38.277344 54.554688 38.058594 54.519531 C 37.839844 54.480469 37.640625 54.523438 37.460938 54.648438 C 37.277344 54.773438 37.167969 54.945312 37.125 55.164062 C 37.085938 55.378906 37.128906 55.578125 37.25 55.761719 L 38.539062 57.613281 L 38.078125 60.144531 L 36.785156 60.433594 L 35.308594 58.308594 L 35.710938 56.097656 C 35.75 55.878906 35.707031 55.679688 35.582031 55.496094 C 35.453125 55.3125 35.28125 55.203125 35.0625 55.164062 C 34.84375 55.121094 34.640625 55.167969 34.457031 55.292969 C 34.273438 55.417969 34.164062 55.59375 34.125 55.8125 L 34.007812 56.441406 L 33.621094 55.886719 C 33.496094 55.707031 33.320312 55.597656 33.101562 55.558594 C 32.886719 55.519531 32.6875 55.566406 32.503906 55.691406 C 32.320312 55.816406 32.210938 55.988281 32.171875 56.203125 C 32.128906 56.421875 32.171875 56.621094 32.296875 56.804688 L 32.683594 57.355469 L 32.046875 57.242188 C 31.828125 57.195312 31.621094 57.238281 31.433594 57.363281 C 31.246094 57.492188 31.132812 57.664062 31.09375 57.886719 C 31.054688 58.109375 31.097656 58.3125 31.230469 58.496094 C 31.359375 58.679688 31.539062 58.789062 31.761719 58.824219 L 33.980469 59.226562 L 35.433594 61.316406 L 34.710938 62.453125 L 32.195312 62 L 30.910156 60.148438 C 30.78125 59.964844 30.609375 59.855469 30.390625 59.8125 C 30.171875 59.773438 29.96875 59.816406 29.785156 59.945312 C 29.601562 60.070312 29.492188 60.242188 29.453125 60.460938 C 29.410156 60.679688 29.457031 60.882812 29.582031 61.066406 L 29.949219 61.59375 L 29.28125 61.472656 C 29.0625 61.429688 28.863281 61.476562 28.679688 61.601562 C 28.496094 61.726562 28.382812 61.902344 28.34375 62.121094 C 28.304688 62.339844 28.347656 62.539062 28.472656 62.722656 C 28.601562 62.902344 28.773438 63.015625 28.992188 63.054688 L 29.660156 63.175781 L 29.132812 63.542969 C 28.945312 63.667969 28.828125 63.839844 28.785156 64.058594 C 28.742188 64.28125 28.785156 64.484375 28.914062 64.671875 C 29.042969 64.855469 29.21875 64.96875 29.441406 65.003906 C 29.664062 65.042969 29.867188 64.996094 30.050781 64.863281 L 31.90625 63.582031 L 34.367188 64.023438 L 34.671875 65.375 L 32.609375 66.800781 L 30.386719 66.398438 C 30.167969 66.359375 29.96875 66.402344 29.785156 66.527344 C 29.601562 66.65625 29.488281 66.828125 29.449219 67.046875 C 29.410156 67.265625 29.453125 67.464844 29.582031 67.648438 C 29.707031 67.832031 29.878906 67.941406 30.101562 67.980469 L 30.734375 68.097656 L 30.175781 68.480469 C 29.988281 68.605469 29.875 68.78125 29.835938 69 C 29.792969 69.21875 29.835938 69.421875 29.964844 69.605469 C 30.09375 69.789062 30.269531 69.902344 30.488281 69.941406 C 30.710938 69.980469 30.910156 69.933594 31.09375 69.804688 L 31.652344 69.417969 L 31.539062 70.050781 C 31.492188 70.273438 31.53125 70.476562 31.660156 70.664062 C 31.785156 70.851562 31.960938 70.964844 32.183594 71.003906 C 32.40625 71.046875 32.609375 71 32.796875 70.867188 C 32.980469 70.738281 33.089844 70.5625 33.125 70.335938 L 33.527344 68.121094 L 35.554688 66.722656 L 36.75 67.476562 L 36.308594 69.90625 L 34.453125 71.1875 C 34.273438 71.316406 34.167969 71.488281 34.128906 71.707031 C 34.09375 71.921875 34.136719 72.121094 34.261719 72.300781 C 34.386719 72.480469 34.558594 72.589844 34.773438 72.632812 C 34.988281 72.671875 35.1875 72.632812 35.371094 72.511719 L 35.898438 72.144531 L 35.777344 72.8125 C 35.738281 73.03125 35.78125 73.230469 35.910156 73.414062 C 36.035156 73.597656 36.210938 73.707031 36.429688 73.746094 C 36.476562 73.753906 36.523438 73.761719 36.574219 73.761719 C 36.769531 73.757812 36.941406 73.695312 37.089844 73.574219 C 37.242188 73.449219 37.332031 73.289062 37.367188 73.097656 L 37.488281 72.433594 L 37.855469 72.960938 C 37.984375 73.140625 38.15625 73.25 38.375 73.289062 C 38.59375 73.324219 38.792969 73.28125 38.972656 73.15625 C 39.15625 73.03125 39.265625 72.859375 39.308594 72.644531 C 39.347656 72.425781 39.304688 72.226562 39.183594 72.042969 L 37.894531 70.191406 L 38.335938 67.773438 L 39.714844 67.464844 L 41.125 69.496094 L 40.722656 71.710938 C 40.679688 71.929688 40.722656 72.132812 40.851562 72.316406 C 40.976562 72.5 41.152344 72.613281 41.371094 72.652344 C 41.59375 72.691406 41.792969 72.648438 41.976562 72.519531 C 42.160156 72.390625 42.273438 72.21875 42.3125 71.996094 L 42.425781 71.367188 L 42.8125 71.921875 C 42.941406 72.101562 43.113281 72.210938 43.332031 72.25 C 43.546875 72.289062 43.75 72.242188 43.929688 72.117188 C 44.113281 71.992188 44.222656 71.820312 44.265625 71.605469 C 44.304688 71.386719 44.261719 71.1875 44.136719 71.003906 L 43.75 70.449219 L 44.386719 70.5625 C 44.605469 70.605469 44.808594 70.5625 44.992188 70.4375 C 45.175781 70.308594 45.289062 70.136719 45.328125 69.914062 C 45.371094 69.695312 45.324219 69.496094 45.195312 69.3125 C 45.070312 69.128906 44.894531 69.019531 44.671875 68.980469 L 42.453125 68.578125 L 41.027344 66.527344 L 41.769531 65.359375 L 44.242188 65.808594 L 45.527344 67.65625 C 45.652344 67.84375 45.824219 67.957031 46.046875 67.996094 C 46.265625 68.039062 46.46875 67.996094 46.65625 67.867188 C 46.839844 67.742188 46.949219 67.566406 46.988281 67.347656 C 47.027344 67.125 46.984375 66.921875 46.851562 66.742188 L 46.488281 66.214844 L 47.152344 66.335938 C 47.203125 66.34375 47.25 66.347656 47.300781 66.347656 C 47.507812 66.347656 47.6875 66.277344 47.839844 66.136719 C 47.996094 65.996094 48.082031 65.820312 48.097656 65.613281 C 48.117188 65.40625 48.0625 65.222656 47.9375 65.054688 C 47.8125 64.890625 47.648438 64.789062 47.441406 64.75 Z M 37.804688 66.242188 L 36.304688 65.292969 L 35.914062 63.5625 L 36.867188 62.0625 L 38.601562 61.675781 L 40.105469 62.625 L 40.492188 64.355469 L 39.539062 65.855469 Z M 37.804688 66.242188 "/></g><path style=" stroke:none;fill-rule:nonzero;fill:#010101;fill-opacity:1;" d="M 14.679688 48.851562 C 15.054688 48.929688 15.433594 48.945312 15.8125 48.894531 C 16.195312 48.847656 16.554688 48.734375 16.898438 48.566406 C 17.242188 48.394531 17.546875 48.171875 17.816406 47.898438 C 18.082031 47.621094 18.296875 47.3125 18.460938 46.964844 C 18.832031 46.445312 19.332031 44.964844 18.824219 43.996094 C 18.472656 42.902344 16.777344 41.628906 15.5625 40.855469 C 15.582031 40.824219 15.597656 40.792969 15.617188 40.765625 C 17.625 41.964844 20.796875 43.824219 22.644531 40.847656 C 22.886719 40.542969 23.070312 40.207031 23.199219 39.835938 C 23.328125 39.46875 23.394531 39.09375 23.394531 38.703125 C 23.394531 38.3125 23.332031 37.933594 23.203125 37.566406 C 23.078125 37.199219 22.890625 36.863281 22.652344 36.558594 C 22.203125 35.851562 21.3125 34.957031 20.132812 34.925781 C 18.976562 34.757812 17.089844 35.734375 15.839844 36.484375 C 15.816406 36.445312 15.800781 36.402344 15.78125 36.367188 C 17.859375 35.359375 21.027344 33.898438 19.605469 30.683594 C 19.246094 29.4375 17.789062 28.078125 16.039062 28.285156 C 14.34375 28.15625 12.710938 29.390625 12.40625 31.613281 C 12.40625 30.246094 11.445312 28.1875 9.28125 28.03125 C 8.898438 27.941406 8.511719 27.917969 8.125 27.960938 C 7.734375 28.003906 7.363281 28.113281 7.011719 28.285156 C 6.660156 28.453125 6.347656 28.679688 6.074219 28.957031 C 5.796875 29.238281 5.578125 29.554688 5.414062 29.90625 C 4.539062 31.222656 4.601562 33.136719 6.292969 34.550781 C 4.96875 33.765625 2.664062 33.4375 1.402344 35.335938 C 0.5 36.203125 0.0625 38.261719 1.09375 39.613281 C 1.488281 40.347656 2.328125 41.308594 3.488281 41.417969 C 4.398438 41.691406 6.738281 40.792969 7.921875 40.144531 C 7.9375 40.183594 7.960938 40.226562 7.976562 40.265625 C 5.835938 41.117188 2.613281 42.367188 3.796875 45.65625 C 4.070312 46.925781 5.429688 48.382812 7.1875 48.296875 C 7.734375 48.398438 9.40625 48.191406 10.023438 47.316406 C 10.96875 46.34375 11.226562 44.34375 11.46875 42.765625 C 11.503906 42.769531 11.539062 42.769531 11.574219 42.769531 C 11.386719 45.046875 11.15625 48.550781 14.679688 48.851562 Z M 13.4375 46.53125 C 12.914062 45.777344 13.128906 43.796875 13.191406 42.601562 C 13.632812 42.46875 14.042969 42.269531 14.421875 42.007812 C 15.398438 42.949219 18.351562 43.9375 17.09375 46.113281 C 17.003906 46.332031 16.878906 46.53125 16.71875 46.703125 C 16.554688 46.878906 16.367188 47.019531 16.152344 47.121094 C 15.9375 47.226562 15.710938 47.289062 15.476562 47.3125 C 15.238281 47.332031 15.003906 47.3125 14.773438 47.246094 C 14.453125 47.171875 13.765625 47.121094 13.4375 46.53125 Z M 9.597656 44.269531 C 9.417969 45.039062 9.457031 45.382812 8.765625 46.308594 C 8.519531 46.554688 8.167969 46.742188 7.359375 46.691406 C 7.121094 46.710938 6.886719 46.683594 6.660156 46.617188 C 6.433594 46.546875 6.222656 46.4375 6.035156 46.292969 C 5.847656 46.148438 5.691406 45.972656 5.566406 45.769531 C 5.445312 45.566406 5.359375 45.347656 5.320312 45.113281 C 5.246094 44.796875 4.984375 44.15625 5.375 43.605469 C 5.9375 42.710938 7.683594 42.160156 8.9375 41.589844 C 9.234375 41.871094 9.5625 42.105469 9.921875 42.292969 C 9.890625 42.332031 9.636719 43.957031 9.597656 44.269531 Z M 3.625 39.816406 C 3.109375 39.667969 2.738281 39.351562 2.519531 38.863281 C 2.371094 38.675781 2.265625 38.46875 2.195312 38.242188 C 2.125 38.015625 2.097656 37.78125 2.113281 37.546875 C 2.132812 37.308594 2.191406 37.082031 2.292969 36.867188 C 2.390625 36.648438 2.527344 36.460938 2.699219 36.292969 C 2.851562 36.09375 3.027344 35.914062 3.226562 35.753906 C 4.394531 34.964844 6.242188 36.433594 7.707031 37.363281 C 7.613281 37.753906 7.570312 38.148438 7.574219 38.550781 C 6.371094 38.949219 5.273438 39.960938 3.628906 39.8125 Z M 6.480469 31.4375 C 6.742188 30.035156 8.910156 28.597656 10.433594 30.34375 C 10.957031 31.085938 10.742188 33.082031 10.683594 34.257812 C 10.234375 34.390625 9.820312 34.59375 9.441406 34.859375 C 8.519531 33.949219 6.378906 33.40625 6.480469 31.4375 Z M 13.917969 32.46875 C 13.628906 30.191406 16.832031 28.53125 18.125 31.328125 C 18.222656 31.644531 18.527344 32.261719 18.175781 32.839844 C 17.660156 33.777344 15.976562 34.433594 14.746094 35.101562 C 14.4375 34.84375 14.097656 34.628906 13.730469 34.464844 C 13.761719 34.421875 13.902344 32.78125 13.917969 32.46875 Z M 20.113281 36.535156 C 20.636719 36.648438 21.027344 36.9375 21.277344 37.40625 C 21.4375 37.582031 21.5625 37.78125 21.644531 38.003906 C 21.730469 38.226562 21.773438 38.457031 21.773438 38.695312 C 21.773438 38.933594 21.730469 39.160156 21.644531 39.382812 C 21.5625 39.605469 21.4375 39.804688 21.277344 39.980469 C 21.074219 40.234375 20.726562 40.835938 20.050781 40.867188 C 18.941406 40.949219 17.511719 39.9375 16.21875 39.269531 C 16.296875 38.871094 16.316406 38.46875 16.28125 38.0625 C 17.289062 37.625 18.519531 36.558594 20.117188 36.535156 Z M 11.9375 41.175781 C 8.25 41.019531 8.425781 35.796875 11.9375 35.683594 C 15.621094 35.839844 15.445312 41.0625 11.9375 41.175781 Z M 11.9375 41.175781 "/><path style=" stroke:none;fill-rule:nonzero;fill:#010101;fill-opacity:1;" d="M 15.007812 26.421875 C 15.253906 26.585938 15.519531 26.695312 15.808594 26.753906 C 16.09375 26.8125 16.382812 26.8125 16.671875 26.753906 C 16.960938 26.699219 17.226562 26.589844 17.472656 26.425781 C 17.71875 26.265625 17.921875 26.0625 18.085938 25.816406 C 19.011719 24.441406 20.066406 23.175781 21.257812 22.019531 C 21.527344 22.355469 21.863281 22.589844 22.269531 22.726562 C 22.675781 22.863281 23.085938 22.882812 23.503906 22.78125 C 23.921875 22.679688 24.277344 22.472656 24.574219 22.164062 C 24.871094 21.859375 25.066406 21.496094 25.152344 21.074219 L 25.839844 17.730469 C 25.882812 17.570312 25.902344 17.40625 25.90625 17.238281 C 25.910156 17.070312 25.890625 16.90625 25.855469 16.742188 C 25.820312 16.578125 25.765625 16.421875 25.691406 16.269531 C 25.621094 16.121094 25.53125 15.980469 25.425781 15.851562 C 25.320312 15.71875 25.203125 15.605469 25.070312 15.503906 C 24.9375 15.398438 24.792969 15.3125 24.640625 15.246094 C 24.488281 15.175781 24.328125 15.125 24.164062 15.09375 C 24 15.0625 23.835938 15.046875 23.667969 15.054688 L 19.957031 15.054688 C 19.523438 15.054688 19.121094 15.171875 18.753906 15.40625 C 18.390625 15.640625 18.117188 15.957031 17.9375 16.351562 C 17.757812 16.746094 17.699219 17.160156 17.761719 17.589844 C 17.828125 18.019531 18.003906 18.394531 18.289062 18.722656 C 16.828125 20.125 15.53125 21.667969 14.402344 23.351562 C 14.238281 23.59375 14.125 23.859375 14.070312 24.148438 C 14.011719 24.433594 14.011719 24.722656 14.066406 25.011719 C 14.125 25.296875 14.234375 25.566406 14.398438 25.808594 C 14.558594 26.054688 14.765625 26.257812 15.007812 26.421875 Z M 15.742188 24.246094 C 16.992188 22.386719 18.453125 20.710938 20.125 19.21875 C 20.363281 19.007812 20.445312 18.746094 20.371094 18.433594 C 20.300781 18.125 20.109375 17.925781 19.800781 17.84375 C 19.65625 17.804688 19.539062 17.722656 19.453125 17.59375 C 19.371094 17.46875 19.339844 17.332031 19.359375 17.183594 C 19.378906 17.03125 19.445312 16.90625 19.558594 16.808594 C 19.675781 16.710938 19.808594 16.660156 19.960938 16.660156 L 23.722656 16.660156 C 23.890625 16.660156 24.039062 16.71875 24.15625 16.84375 C 24.273438 16.992188 24.3125 17.164062 24.273438 17.347656 C 24.269531 17.363281 24.269531 17.375 24.265625 17.390625 L 23.570312 20.75 C 23.539062 20.902344 23.460938 21.019531 23.335938 21.113281 C 23.210938 21.203125 23.074219 21.242188 22.917969 21.226562 C 22.765625 21.210938 22.636719 21.148438 22.53125 21.035156 C 22.429688 20.917969 22.375 20.785156 22.375 20.632812 C 22.371094 20.285156 22.214844 20.042969 21.898438 19.902344 C 21.582031 19.761719 21.292969 19.804688 21.03125 20.03125 C 19.394531 21.480469 17.964844 23.109375 16.746094 24.917969 C 16.652344 25.054688 16.523438 25.136719 16.359375 25.167969 C 16.199219 25.203125 16.046875 25.171875 15.90625 25.085938 C 15.769531 24.992188 15.683594 24.863281 15.652344 24.699219 C 15.617188 24.535156 15.648438 24.386719 15.742188 24.246094 Z M 15.742188 24.246094 "/><path style=" stroke:none;fill-rule:nonzero;fill:#010101;fill-opacity:1;" d="M 52.429688 19.066406 C 53.710938 20.117188 54.875 21.285156 55.914062 22.574219 C 55.554688 22.8125 55.289062 23.125 55.113281 23.515625 C 54.9375 23.90625 54.878906 24.3125 54.941406 24.734375 C 55 25.160156 55.171875 25.53125 55.449219 25.859375 C 55.730469 26.183594 56.074219 26.40625 56.484375 26.535156 L 59.734375 27.53125 C 59.980469 27.617188 60.234375 27.660156 60.496094 27.65625 C 60.957031 27.660156 61.375 27.527344 61.75 27.253906 C 62.292969 26.851562 62.589844 26.316406 62.636719 25.640625 C 62.660156 25.398438 62.992188 21.957031 62.992188 21.957031 C 63.035156 21.527344 62.957031 21.117188 62.757812 20.730469 C 62.558594 20.34375 62.269531 20.042969 61.894531 19.828125 C 61.515625 19.609375 61.109375 19.511719 60.675781 19.535156 C 60.238281 19.558594 59.847656 19.695312 59.492188 19.953125 C 58.230469 18.363281 56.816406 16.929688 55.246094 15.644531 C 54.929688 15.386719 54.566406 15.226562 54.164062 15.167969 C 53.757812 15.109375 53.367188 15.15625 52.988281 15.3125 C 52.609375 15.46875 52.296875 15.710938 52.054688 16.039062 C 51.808594 16.367188 51.667969 16.734375 51.628906 17.140625 C 51.59375 17.507812 51.648438 17.863281 51.789062 18.203125 C 51.929688 18.542969 52.144531 18.832031 52.429688 19.066406 Z M 53.371094 16.972656 C 53.476562 16.84375 53.613281 16.773438 53.777344 16.753906 C 53.945312 16.738281 54.09375 16.785156 54.222656 16.890625 C 55.957031 18.308594 57.488281 19.917969 58.820312 21.722656 C 59.007812 21.980469 59.261719 22.085938 59.578125 22.042969 C 59.894531 22 60.109375 21.832031 60.222656 21.53125 C 60.277344 21.390625 60.371094 21.285156 60.503906 21.214844 C 60.636719 21.144531 60.777344 21.128906 60.921875 21.160156 C 61.070312 21.195312 61.1875 21.273438 61.277344 21.394531 C 61.363281 21.519531 61.402344 21.652344 61.386719 21.804688 C 61.027344 25.503906 61.027344 25.503906 61.027344 25.515625 L 61.027344 25.535156 C 61.011719 25.707031 60.9375 25.847656 60.800781 25.953125 C 60.625 26.0625 60.441406 26.078125 60.246094 26.007812 L 56.960938 24.996094 C 56.824219 24.953125 56.714844 24.875 56.632812 24.753906 C 56.554688 24.636719 56.519531 24.503906 56.535156 24.359375 C 56.539062 24.320312 56.546875 24.28125 56.558594 24.238281 C 56.648438 23.957031 56.839844 23.816406 57.136719 23.816406 C 57.15625 23.816406 57.171875 23.816406 57.191406 23.816406 C 57.539062 23.847656 57.796875 23.714844 57.964844 23.414062 C 58.136719 23.113281 58.121094 22.824219 57.917969 22.542969 C 56.632812 20.777344 55.144531 19.203125 53.453125 17.820312 C 53.324219 17.714844 53.25 17.582031 53.234375 17.414062 C 53.21875 17.25 53.261719 17.101562 53.371094 16.972656 Z M 53.371094 16.972656 "/><path style=" stroke:none;fill-rule:nonzero;fill:#010101;fill-opacity:1;" d="M 61.824219 49.160156 C 61.5625 49.023438 61.285156 48.941406 60.992188 48.914062 C 60.699219 48.886719 60.414062 48.917969 60.132812 49.003906 C 59.851562 49.089844 59.597656 49.226562 59.371094 49.414062 C 59.144531 49.601562 58.960938 49.824219 58.824219 50.082031 C 58.046875 51.546875 57.128906 52.914062 56.070312 54.1875 C 55.699219 53.816406 55.25 53.601562 54.722656 53.550781 C 54.574219 53.535156 54.421875 53.535156 54.269531 53.550781 C 54.019531 53.578125 53.777344 53.644531 53.546875 53.753906 C 53.316406 53.867188 53.109375 54.011719 52.929688 54.191406 C 52.75 54.371094 52.605469 54.578125 52.496094 54.808594 C 52.386719 55.039062 52.320312 55.28125 52.292969 55.535156 L 51.957031 58.929688 C 51.863281 59.675781 52.089844 60.308594 52.636719 60.824219 C 53.054688 61.203125 53.546875 61.390625 54.113281 61.386719 C 54.210938 61.386719 54.308594 61.378906 54.402344 61.367188 L 58.089844 60.980469 C 58.523438 60.9375 58.910156 60.777344 59.25 60.507812 C 59.589844 60.234375 59.828125 59.894531 59.964844 59.480469 C 60.105469 59.066406 60.117188 58.652344 60.007812 58.230469 C 59.898438 57.808594 59.683594 57.453125 59.363281 57.160156 C 60.671875 55.609375 61.796875 53.9375 62.746094 52.148438 C 62.882812 51.890625 62.964844 51.613281 62.992188 51.320312 C 63.019531 51.027344 62.992188 50.742188 62.90625 50.460938 C 62.816406 50.183594 62.679688 49.929688 62.492188 49.703125 C 62.304688 49.476562 62.082031 49.296875 61.820312 49.15625 Z M 61.320312 51.398438 C 60.273438 53.378906 58.996094 55.199219 57.488281 56.855469 C 57.273438 57.09375 57.21875 57.363281 57.324219 57.664062 C 57.429688 57.964844 57.640625 58.140625 57.957031 58.191406 C 58.105469 58.214844 58.226562 58.285156 58.324219 58.402344 C 58.417969 58.519531 58.464844 58.652344 58.460938 58.800781 C 58.457031 58.953125 58.402344 59.082031 58.300781 59.191406 C 58.199219 59.304688 58.070312 59.367188 57.921875 59.382812 L 54.21875 59.769531 L 54.183594 59.773438 C 54.011719 59.792969 53.859375 59.75 53.726562 59.640625 C 53.59375 59.5 53.539062 59.339844 53.558594 59.148438 C 53.558594 59.136719 53.5625 59.121094 53.5625 59.109375 L 53.902344 55.695312 C 53.914062 55.550781 53.972656 55.429688 54.074219 55.328125 C 54.175781 55.226562 54.296875 55.167969 54.4375 55.152344 C 54.457031 55.152344 54.480469 55.152344 54.5 55.152344 C 54.519531 55.152344 54.539062 55.152344 54.5625 55.152344 C 54.703125 55.167969 54.828125 55.226562 54.925781 55.324219 C 55.027344 55.425781 55.089844 55.546875 55.105469 55.6875 C 55.140625 56.03125 55.324219 56.257812 55.65625 56.363281 C 55.984375 56.472656 56.265625 56.398438 56.5 56.144531 C 57.976562 54.535156 59.226562 52.765625 60.25 50.835938 C 60.351562 50.648438 60.507812 50.539062 60.722656 50.519531 C 60.84375 50.503906 60.960938 50.527344 61.066406 50.585938 C 61.214844 50.664062 61.3125 50.78125 61.363281 50.941406 C 61.410156 51.101562 61.398438 51.253906 61.320312 51.402344 Z M 61.320312 51.398438 "/><path style=" stroke:none;fill-rule:nonzero;fill:#010101;fill-opacity:1;" d="M 25.070312 58.121094 C 23.671875 57.230469 22.378906 56.207031 21.195312 55.050781 C 21.523438 54.773438 21.75 54.429688 21.878906 54.023438 C 22.007812 53.613281 22.015625 53.203125 21.902344 52.789062 C 21.792969 52.375 21.578125 52.023438 21.265625 51.734375 C 20.949219 51.445312 20.578125 51.261719 20.15625 51.1875 L 16.789062 50.574219 C 16.050781 50.417969 15.402344 50.59375 14.839844 51.09375 C 14.351562 51.558594 14.121094 52.125 14.15625 52.800781 C 14.160156 53.039062 14.238281 56.5 14.238281 56.503906 C 14.25 56.9375 14.375 57.332031 14.617188 57.691406 C 14.863281 58.050781 15.183594 58.316406 15.585938 58.484375 C 15.984375 58.65625 16.398438 58.703125 16.828125 58.632812 C 17.257812 58.558594 17.628906 58.375 17.949219 58.082031 C 19.394531 59.507812 20.96875 60.761719 22.679688 61.851562 C 23.042969 62.085938 23.441406 62.203125 23.871094 62.203125 C 24.035156 62.203125 24.195312 62.183594 24.355469 62.148438 C 24.792969 62.050781 25.167969 61.84375 25.480469 61.519531 C 25.789062 61.195312 25.984375 60.816406 26.0625 60.375 C 26.140625 59.933594 26.089844 59.507812 25.910156 59.097656 C 25.730469 58.6875 25.449219 58.363281 25.070312 58.121094 Z M 24.386719 60.3125 C 24.296875 60.453125 24.167969 60.539062 24.003906 60.578125 C 23.84375 60.613281 23.691406 60.585938 23.550781 60.496094 C 21.65625 59.292969 19.945312 57.875 18.410156 56.242188 C 18.25 56.070312 18.054688 55.988281 17.820312 55.988281 C 17.753906 55.988281 17.683594 55.996094 17.621094 56.011719 C 17.308594 56.09375 17.117188 56.289062 17.039062 56.597656 C 17.007812 56.726562 16.9375 56.835938 16.832031 56.921875 C 16.726562 57.007812 16.605469 57.050781 16.472656 57.054688 C 16.304688 57.058594 16.160156 57.003906 16.039062 56.886719 C 15.917969 56.773438 15.855469 56.632812 15.851562 56.464844 C 15.769531 52.75 15.769531 52.746094 15.769531 52.738281 L 15.769531 52.71875 C 15.761719 52.546875 15.820312 52.398438 15.941406 52.277344 C 16.089844 52.15625 16.257812 52.113281 16.445312 52.148438 C 16.457031 52.152344 16.472656 52.152344 16.484375 52.15625 L 19.871094 52.769531 C 20.011719 52.796875 20.128906 52.863281 20.222656 52.972656 C 20.3125 53.082031 20.363281 53.207031 20.367188 53.351562 C 20.367188 53.390625 20.363281 53.433594 20.355469 53.472656 C 20.332031 53.613281 20.261719 53.730469 20.15625 53.824219 C 20.046875 53.914062 19.921875 53.964844 19.777344 53.96875 C 19.433594 53.976562 19.191406 54.140625 19.058594 54.460938 C 18.921875 54.777344 18.972656 55.066406 19.210938 55.320312 C 20.695312 56.917969 22.359375 58.304688 24.203125 59.480469 C 24.386719 59.59375 24.480469 59.761719 24.484375 59.976562 C 24.484375 60.097656 24.453125 60.210938 24.386719 60.3125 Z M 24.386719 60.3125 "/></g></svg>